HIERARCHY
ROOT root
{
	OFFSET 0.000000 0.000000 0.000000
	CHANNELS 6 Xposition Yposition Zposition Zrotation Yrotation Xrotation
	JOINT lhip
	{
		OFFSET 0.058581 -0.082280 -0.017664
		CHANNELS 3 Zrotation Yrotation Xrotation
		JOINT lknee
		{
			OFFSET 0.043451 -0.386469 0.008037
			CHANNELS 3 Zrotation Yrotation Xrotation
			JOINT lankle
			{
				OFFSET -0.014790 -0.426874 -0.037428
				CHANNELS 3 Zrotation Yrotation Xrotation
				JOINT ltoe
				{
					OFFSET 0.041054 -0.060286 0.122042
					CHANNELS 3 Zrotation Yrotation Xrotation
					End Site
					{
						OFFSET 0.000000 0.000000 0.000000
					}
				}
			}
		}
	}
	JOINT rhip
	{
		OFFSET -0.060310 -0.090513 -0.013543
		CHANNELS 3 Zrotation Yrotation Xrotation
		JOINT rknee
		{
			OFFSET -0.043257 -0.383688 -0.004843
			CHANNELS 3 Zrotation Yrotation Xrotation
			JOINT rankle
			{
				OFFSET 0.019056 -0.420046 -0.034562
				CHANNELS 3 Zrotation Yrotation Xrotation
				JOINT rtoe
				{
					OFFSET -0.034840 -0.062106 0.130323
					CHANNELS 3 Zrotation Yrotation Xrotation
					End Site
					{
						OFFSET 0.000000 0.000000 0.000000
					}
				}
			}
		}
	}
	JOINT lowerback
	{
		OFFSET 0.004439 0.124404 -0.038385
		CHANNELS 3 Zrotation Yrotation Xrotation
		JOINT upperback
		{
			OFFSET 0.004488 0.137956 0.026820
			CHANNELS 3 Zrotation Yrotation Xrotation
			JOINT chest
			{
				OFFSET -0.002265 0.056032 0.002855
				CHANNELS 3 Zrotation Yrotation Xrotation
				JOINT lowerneck
				{
					OFFSET -0.013390 0.211636 -0.033468
					CHANNELS 3 Zrotation Yrotation Xrotation
					JOINT upperneck
					{
						OFFSET 0.010113 0.088937 0.050410
						CHANNELS 3 Zrotation Yrotation Xrotation
						End Site
						{
							OFFSET 0.000000 0.000000 0.000000
						}
					}
				}
				JOINT lclavicle
				{
					OFFSET 0.071702 0.114000 -0.018898
					CHANNELS 3 Zrotation Yrotation Xrotation
					JOINT lshoulder
					{
						OFFSET 0.122921 0.045205 -0.019046
						CHANNELS 3 Zrotation Yrotation Xrotation
						JOINT lelbow
						{
							OFFSET 0.255332 -0.015649 -0.022946
							CHANNELS 3 Zrotation Yrotation Xrotation
							JOINT lwrist
							{
								OFFSET 0.265709 0.012698 -0.007375
								CHANNELS 3 Zrotation Yrotation Xrotation
								End Site
								{
									OFFSET 0.000000 0.000000 0.000000
								}
							}
						}
					}
				}
				JOINT rclavicle
				{
					OFFSET -0.082954 0.112472 -0.023707
					CHANNELS 3 Zrotation Yrotation Xrotation
					JOINT rshoulder
					{
						OFFSET -0.113228 0.046853 -0.008472
						CHANNELS 3 Zrotation Yrotation Xrotation
						JOINT relbow
						{
							OFFSET -0.260127 -0.014369 -0.031269
							CHANNELS 3 Zrotation Yrotation Xrotation
							JOINT rwrist
							{
								OFFSET -0.269108 0.006794 -0.006027
								CHANNELS 3 Zrotation Yrotation Xrotation
								End Site
								{
									OFFSET 0.000000 0.000000 0.000000
								}
							}
						}
					}
				}
			}
		}
	}
}
MOTION
Frames: 13
Frame Time: 0.033333
-2.561815 0.174971 0.986789 94.160924 1.283242 83.894704 2.676871 -0.437049 -5.121503 -4.731904 2.539574 58.046986 1.975638 11.409750 -8.987193 0.000000 -0.000000 0.000000 3.996007 1.468893 -6.265408 3.146577 -3.603462 21.923198 -2.247171 -5.019332 -19.941561 0.000000 -0.000000 0.000000 2.858436 -0.192122 10.192271 5.543953 -1.218406 1.379761 0.378001 -1.516178 1.581849 0.455476 5.163707 -7.662716 -7.700751 0.058869 5.586112 -28.797481 6.806191 1.952760 -60.488498 -2.729199 9.916114 11.787940 -38.416003 16.517031 -7.547547 -7.039021 -5.588689 31.505195 -4.026532 0.446823 55.451828 3.878276 9.838111 -25.173118 26.898501 -3.984683 7.705981 2.500881 -2.628337 
-2.510655 0.176400 0.993615 91.853146 -0.064316 83.518779 1.982854 -0.063263 -9.039507 -3.449183 6.108081 52.288638 1.856065 11.970019 -13.339796 0.000000 -0.000000 0.000000 2.585728 -1.688104 0.387362 3.361910 -0.045698 17.032040 -1.542831 -2.401949 -20.006278 0.000000 -0.000000 0.000000 2.091228 2.959093 9.851277 4.843959 -1.641860 1.647043 0.255345 -1.060574 1.275233 0.961759 4.868650 -6.227499 -7.666883 -0.114908 5.200563 -28.507846 7.350606 2.074310 -61.064890 0.536418 9.809261 10.607356 -35.028027 20.667939 -11.671074 -6.625566 -4.703932 30.328494 -3.130463 0.358663 55.856889 7.317345 10.613802 -24.134336 31.114368 -3.028586 8.341146 3.556650 -4.067078 
-2.464870 0.177471 0.994266 89.570353 -0.671815 84.031015 2.551709 -0.801467 -13.569651 -2.860706 10.380728 44.652081 2.221200 12.665776 -14.235748 0.000000 -0.000000 0.000000 1.275490 -1.875419 5.014064 4.214686 0.867669 13.472599 -1.564860 -1.166734 -20.819851 0.000000 -0.000000 0.000000 1.739921 5.093762 8.885260 4.153119 -1.424597 1.629351 -0.054435 -0.325388 0.981329 2.351936 5.422940 -4.561049 -7.745608 -0.999279 6.455045 -28.189935 6.986365 3.620403 -61.387486 3.905992 9.845327 11.202193 -33.690895 21.714757 -17.468811 -5.655756 -2.978912 29.645767 -1.337101 1.329918 55.030822 10.626938 11.255719 -24.093080 35.325972 -3.533695 10.038537 4.620557 -5.832141 
-2.403758 0.179213 0.989387 87.476349 -0.744701 83.927694 3.532671 -1.123774 -16.530778 -2.796426 13.342886 31.353875 1.258147 13.051212 -14.678504 0.000000 -0.000000 0.000000 -0.642867 -3.924072 12.160772 5.457073 3.349152 8.927268 -0.970871 0.513887 -20.872011 0.000000 -0.000000 0.000000 2.330258 6.730129 7.785686 3.366978 -1.706276 3.648344 -0.337806 0.215247 1.288268 2.419913 5.968164 -5.836297 -8.069164 -1.200133 5.567270 -28.957160 8.642412 2.383940 -60.216965 7.965955 9.278157 9.189880 -33.612920 24.674160 -21.527185 -4.486626 -0.556204 28.642946 0.375448 0.454448 53.200727 15.627116 11.650501 -22.363409 40.832950 -3.501257 10.207126 5.923982 -5.312623 
-2.367630 0.180271 0.983631 85.613116 -0.700376 83.928411 4.267534 -0.261438 -17.504627 -3.386436 14.116505 21.980710 0.202453 12.754976 -14.026355 0.000000 -0.000000 0.000000 -2.333618 -4.755960 15.894927 6.345933 4.887454 7.267721 -0.154891 2.246013 -21.114363 0.000000 -0.000000 0.000000 2.718128 7.450877 8.117068 2.725388 -1.231534 3.947833 -0.470913 0.774954 1.718382 2.691287 6.440413 -7.571895 -8.354747 -1.524380 5.229578 -29.277560 10.795935 0.862043 -59.361790 10.038759 8.884561 7.524101 -34.028210 26.730381 -22.708851 -4.330078 0.396160 28.032823 0.587403 -1.030515 52.625293 18.621393 12.176387 -21.021553 43.581469 -2.790903 9.981168 6.322615 -4.790245 
-2.318616 0.181354 0.973240 83.125626 -0.125876 83.988103 5.420662 1.902708 -17.853308 -4.307731 12.995831 8.763296 -0.397044 10.998821 -12.939851 0.000000 -0.000000 0.000000 -4.092250 -5.699478 19.743031 7.094221 7.571095 6.956009 0.437188 4.388706 -22.160873 0.000000 -0.000000 0.000000 3.300029 8.227821 7.919873 2.319954 -0.335416 3.868460 -0.513431 1.761213 1.138363 3.248399 6.737340 -6.116420 -8.461756 -1.998154 5.893017 -29.401976 12.132224 1.141664 -58.959134 13.064656 8.595531 6.809582 -33.904128 26.659081 -20.550045 -4.423413 1.127240 27.110271 2.009423 -0.319952 50.866695 21.352080 11.685579 -20.348224 46.223887 -3.732290 7.024361 7.102992 -5.154900 
-2.268139 0.183830 0.959935 81.492877 0.563596 84.669941 5.957024 5.070142 -19.482679 -5.601049 9.647242 -0.759170 -0.511801 9.030186 -12.203411 0.000000 -0.000000 0.000000 -5.797101 -6.611073 22.387350 7.553297 9.992599 7.836699 0.919335 6.474443 -23.228816 0.000000 -0.000000 0.000000 3.717678 8.208506 7.166936 2.062925 0.415695 3.800312 -0.720370 2.979746 0.791569 3.710776 7.003584 -5.751097 -8.607266 -2.335262 6.051278 -29.555910 14.500467 -0.208920 -57.887139 16.170899 8.080147 5.477893 -34.105735 27.878855 -19.805577 -4.207296 1.160539 26.520095 2.053902 -0.765523 49.583841 23.682468 11.381328 -19.905103 49.025022 -3.726377 6.061453 7.139267 -4.982679 
-2.217582 0.187055 0.947390 80.372729 0.830256 85.361661 6.487421 5.754549 -21.584652 -6.905045 7.915205 -4.614854 -1.668928 7.368483 -11.696700 0.000000 -0.000000 0.000000 -7.380678 -6.408949 24.424451 7.765502 11.871265 9.508313 1.867348 7.727079 -22.944020 0.000000 -0.000000 0.000000 3.655069 8.693417 6.094781 1.974380 0.723774 4.287521 -1.098520 3.909921 0.872756 3.936381 7.060845 -5.952367 -8.412140 -2.909079 5.476923 -29.913543 15.717142 -0.960752 -57.124628 17.851642 7.780703 5.511171 -33.825806 27.156782 -17.410276 -3.816167 1.511080 26.789626 2.083124 -1.263655 47.695825 25.603663 10.821271 -19.868085 51.130820 -4.634822 4.534545 6.978414 -5.637577 
-2.162121 0.189624 0.937871 78.886610 0.179381 85.884910 6.631788 3.437643 -22.696661 -7.009276 9.098075 -2.476509 -1.444468 7.087949 -12.862685 0.000000 -0.000000 0.000000 -9.053209 -5.065641 25.624423 7.153673 13.609080 12.773252 3.787957 8.179107 -20.664364 0.000000 -0.000000 0.000000 2.148430 10.304868 4.724023 2.014416 1.176908 5.346843 -1.246545 4.340332 0.538650 4.403130 6.595684 -6.458086 -8.020133 -3.361026 4.627648 -29.973599 16.357489 -1.231889 -56.284233 18.840180 8.017671 5.700030 -33.351159 25.813606 -16.420991 -4.051514 1.177145 27.474695 1.721015 -1.334378 46.147822 25.657160 11.076481 -21.531990 53.042442 -6.555096 4.065413 6.991710 -5.004695 
-2.090207 0.194686 0.930452 80.235275 -0.130666 87.011817 5.435954 -0.331501 -26.428348 -5.717819 11.786683 8.475674 0.359763 8.405744 -9.013987 0.000000 -0.000000 0.000000 -8.279622 -3.688362 25.194450 6.389084 14.141136 19.186709 4.837793 7.119480 -14.664747 0.000000 -0.000000 0.000000 0.253121 11.134514 3.310154 2.346627 0.824577 4.458635 -1.193447 3.957995 0.852884 4.426453 5.117520 -7.348203 -6.766176 -3.006979 4.139774 -29.505488 16.636639 -1.011031 -55.932407 19.187853 8.292856 5.984899 -32.102721 24.851345 -15.130065 -4.046881 -0.344869 27.748949 0.519862 -1.318915 45.870249 23.090411 12.152951 -25.010514 54.997257 -9.772766 3.154804 7.301628 -5.754957 
-2.031379 0.199695 0.929591 82.021260 -1.108252 88.224077 4.474042 -3.455616 -28.830710 -5.570741 10.231055 15.727504 1.932116 10.040489 -4.400058 0.000000 -0.000000 0.000000 -7.558557 -2.602053 21.947053 5.784015 11.995335 27.411535 7.306318 5.618443 -2.697164 0.000000 -0.000000 0.000000 -2.244929 11.117036 2.635350 2.394759 0.494926 3.006043 -1.327299 3.263158 0.509171 4.811884 3.691117 -8.291415 -5.313622 -2.563285 4.643303 -29.684600 16.991666 -0.541866 -54.995029 18.851257 8.347618 7.440927 -31.180780 22.747057 -15.148145 -3.872287 -0.558269 28.943625 -1.354087 -1.694460 46.724500 19.590660 13.819995 -27.084767 55.476284 -11.267342 4.629463 7.931848 -6.319532 
-1.974035 0.204019 0.933418 83.243030 -2.622610 87.408707 3.154000 -7.395886 -28.201467 -6.420871 10.754619 22.918565 6.224698 11.427964 -8.693225 0.000000 -0.000000 0.000000 -7.897370 -0.867684 18.522398 5.831506 9.125499 38.176488 10.389995 2.554993 10.214277 0.000000 -0.000000 0.000000 -4.831749 11.088379 3.453083 2.274755 0.368125 2.669094 -1.332956 2.434273 0.770989 5.245386 2.333971 -9.095100 -3.974799 -1.875674 3.746910 -29.997707 16.169632 0.217873 -55.128331 17.004659 8.053665 10.077312 -30.206154 19.849762 -17.575636 -5.094999 -2.130333 30.104257 -2.466439 -1.775955 48.257831 16.201179 15.518124 -28.623254 53.810940 -12.654227 6.828766 9.837135 -5.656734 
-1.920246 0.209151 0.938803 83.797827 -3.718493 87.019548 0.779556 -8.337439 -25.406470 -6.702220 10.968804 25.440653 7.532090 12.451816 -12.888368 0.000000 -0.000000 0.000000 -8.348198 0.110108 12.507042 5.081039 6.283638 49.958313 10.932989 -3.573196 19.056692 0.000000 -0.000000 0.000000 -6.358923 9.734370 3.691941 1.666969 0.440206 3.637705 -1.315942 2.242126 0.339068 4.783800 1.186137 -9.996525 -2.310417 -0.418098 3.718845 -29.405086 13.790913 0.818350 -58.250748 15.261575 2.494670 13.633806 -29.407486 16.046714 -20.919633 -4.094618 0.895714 30.277065 -1.611788 -0.983889 50.636868 12.298062 13.883416 -28.255998 52.407610 -13.195916 10.505920 8.812793 -3.256792 
